<svg width="10000" height="10000" viewBox="0 0 10000 10000" fill="none"
	xmlns="http://www.w3.org/2000/svg">
	<rect width="10000" height="10000" />
	<path
		d="M4238.51 8426L2588.54 3049.54H2546.35C2552.6 3177.66 2561.98 3371.4 2574.48 3630.77C2590.1 3887.02 2604.16 4160.45 2616.66 4451.07C2629.16 4741.69 2635.41 5004.19 2635.41 5238.56V8426H1337V1573H3315.09L4936.93 6813.53H4965.06L6685.34 1573H8663.43V8426H7308.77V5182.31C7308.77 4966.69 7311.89 4718.26 7318.14 4437.01C7327.52 4155.77 7338.45 3888.58 7350.95 3635.46C7363.45 3379.22 7372.83 3187.03 7379.08 3058.91H7336.89L5569.74 8426H4238.51Z"
		fill="white" />
</svg>