<svg
	height="168"
	width="168"
	viewBox="0 0 168 168"
	xmlns="http://www.w3.org/2000/svg" version="1.1">
	<path
		d="M 83.743,0 C 37.494,0 0,37.493 0,83.742 c 0,46.251 37.494,83.741 83.743,83.741 46.254,0 83.744,-37.49 83.744,-83.741 0,-46.246 -37.49,-83.738 -83.745,-83.738 z m 38.404,120.78 c -1.5,2.46 -4.72,3.24 -7.18,1.73 -19.662,-12.01 -44.414,-14.73 -73.564,-8.07 -2.809,0.64 -5.609,-1.12 -6.249,-3.93 -0.643,-2.81 1.11,-5.61 3.926,-6.25 31.9,-7.288 59.263,-4.15 81.337,9.34 2.46,1.51 3.24,4.72 1.73,7.18 z m 10.25,-22.802 c -1.89,3.072 -5.91,4.042 -8.98,2.152 -22.51,-13.836 -56.823,-17.843 -83.448,-9.761 -3.453,1.043 -7.1,-0.903 -8.148,-4.35 -1.04,-3.453 0.907,-7.093 4.354,-8.143 30.413,-9.228 68.222,-4.758 94.072,11.127 3.07,1.89 4.04,5.91 2.15,8.976 z m 0.88,-23.744 C 106.287,58.203 61.757,56.729 35.988,64.55 31.85,65.805 27.474,63.469 26.22,59.331 c -1.254,-4.14 1.08,-8.513 5.221,-9.771 29.581,-8.98 78.756,-7.245 109.83,11.202 3.73,2.209 4.95,7.016 2.74,10.733 -2.2,3.722 -7.02,4.949 -10.73,2.739 z"
	/>
</svg>